<svg height="800" viewBox="0 0 512.002 512.002" width="800" xmlns="http://www.w3.org/2000/svg"><path d="m488.697 1.371-82.13 34.813c-6.181 2.62-10.2 8.685-10.2 15.4v40.391l-242.21 242.21-61.17-20.388c-6.007-2.01-12.639-.452-17.116 4.041l-70.97 70.972c-8.776 8.775-5.253 23.775 6.535 27.696l63.04 21.017 21.017 63.04c3.891 11.696 18.849 15.383 27.696 6.534l70.972-70.972c4.482-4.482 6.045-11.103 4.04-17.116l-20.388-61.17 242.21-242.21h40.39c6.715 0 12.781-4.019 15.4-10.2l34.813-82.13c5.874-13.848-8.17-27.78-21.929-21.928z"/><path d="m272.478 168.552 70.988-70.987c-120.187-85.453-272.543-91.159-337.075-38.068-2.525 2.073-4.568 5.006-5.516 8.418-1.669 5.973.125 11.946 4.057 16.03.078.081.129.18.209.26l175.842 175.842 23.656-23.654-153.303-153.305c64.219-2.838 158.269 39.825 221.142 85.464z"/><path d="m453.005 505.065c63.124-84.197 31.34-238.212-38.57-336.533l-70.989 70.987c45.649 62.879 88.337 156.948 85.475 221.155l-153.315-153.315-23.656 23.654c1.71 1.71 174.366 174.39 176.104 176.057 6.289 6.047 15.679 4.692 11.566 4.692 10.934.001 17.219-11.812 13.385-6.697z"/></svg>