<svg viewBox="0 0 512 512" xmlns="http://www.w3.org/2000/svg"><path d="m42.436 0v512h19.164 407.964v-512zm388.792 473.664h-350.459v-435.336h350.459z"/><path d="m414.799 450.398v-395.641h-317.606v402.486h317.606zm-13.689-84.197c-3.654-7.718-8.44-14.709-14.695-20.284-50.18-44.764-45.007-74.203-45.992-92.435-1.262-23.412 24.05-142.4-89.869-137.962-3.474 4.522-6.993 20.596-6.678 29.14 42.746-1.304 50.313 35.603 50.313 70.728s-17.05 58.344-17.05 58.344c-.804 2.371-2.074 1.733-.683 3.814 0 0 2.458 2.961 5.458 6.179 3.266 14.237 15.277 32.42 43.634 35.569 20.361 2.268 22.392 4.528 31.817 9.404 2.545 2.316 4.404 4.591 5.319 6.782-20.888-.957-56.158 26.574-56.158 26.574s-34.872 6.768-67.011 5.548c2.559-3.676 5.52-6.858 8.852-9.07 1.523-1.013 1.935-3.079.916-4.605-1.016-1.525-3.079-1.942-4.604-.929-4.788 3.203-8.61 7.642-11.716 12.441-.364.569-.7 1.144-1.048 1.72-18.717-1.539-35.402-6.311-42.146-17.448-9.889-16.311 52.212-45.562 52.212-45.562v-29.425s-11.674.27-26.862-16.179c-22.326-24.196-16.876-79.613-7.316-94.897 14.276-22.816 29.428-16.138 29.112-19.93-1.05-12.65 5.829-28.253 5.829-28.253-4.58.222-15.08 2.04-26.002 6.567-11.751 4.882-30.735 17.539-40.229 68.163-8.749 46.658 9.455 102.566-1.932 115.853-11.394 13.287-15.191 23.731-15.191 32.276 0 16.387-3.162 32.039-5.062 33.939-1.769 1.776-18.832 27.573-21.103 71.29h-22.337v-375.106h290.222z"/></svg>