<svg viewBox="0 0 512 512" xmlns="http://www.w3.org/2000/svg"><path d="m158.609 214.261v55.652h-33.391v133.565h-11.13v108.522h16.696v-91.826h16.696v91.826h16.696v-91.826h27.824v91.826h16.696v-91.826-16.696-116.87-16.696-55.652h-50.087zm33.391 189.217h-50.087v-116.87h16.696 33.391zm0-133.565h-16.696v-38.956h16.696z"/><path d="m386.783 403.478v-133.565h-33.391v-55.652h-50.087v55.652 16.696 116.87 16.696 91.825h16.695v-91.826h27.826v91.826h16.696v-91.826h16.696v91.826h16.696v-108.522zm-66.783-172.521h16.696v38.956h-16.696zm50.087 172.521h-50.087v-116.87h33.391 16.696z"/><path d="m297.739 158.609v-33.391h-16.696v-66.783h-16.696v-58.435h-16.696v58.435h-16.696v66.783h-16.696v33.391h-22.259v52.87h16.696v-36.174h5.565 83.478 5.565v36.174h16.696v-52.87zm-50.087-83.479h16.696v50.087h-16.696zm33.391 83.479h-50.087v-16.696h50.087z"/><path d="m158.609 300.522h16.696v16.696h-16.696z"/><path d="m158.609 367.304h16.696v16.696h-16.696z"/><path d="m158.609 333.913h16.696v16.696h-16.696z"/><path d="m336.696 333.913h16.696v16.696h-16.696z"/><path d="m336.696 300.522h16.696v16.696h-16.696z"/><path d="m336.696 367.304h16.696v16.696h-16.696z"/><path d="m225.391 200.348h16.696v311.652h-16.696z"/><path d="m269.913 200.348h16.696v311.652h-16.696z"/></svg>