<svg viewBox="0 0 512 512" xmlns="http://www.w3.org/2000/svg"><path d="m317.238 245.229c-22.988 0-43.843.397-62.994 1.455l28.873-76.129-37.368-56.898-31.158-14.573s-39.82 80.011-44.91 159.792c-18.234 5.011-34.924 11.715-50.855 20.652-31.864 12.252-118.826 63.699-118.826 63.699l15.931 30.611h59.722c1.95-12.659 8.884-23.571 18.604-31.035-7.18 7.402-11.636 17.459-11.636 28.591 0 22.733 18.42 41.152 41.162 41.152 22.724 0 41.144-18.419 41.144-41.152 0-11.142-4.464-21.198-11.645-28.608 9.73 7.463 16.664 18.383 18.614 31.052h173.518l-1.94-5.426c-1.429-4.013-1.165-8.442.759-12.262 1.905-3.811 5.292-6.678 9.368-7.931 0 0-6.608.671 11.495-3.669-5.02 7.075-8.037 15.667-8.037 25.009 0 23.95 19.407 43.358 43.348 43.358 23.96 0 43.367-19.408 43.367-43.358 0-17.105-9.986-31.749-24.364-38.806 2.823-.838 5.231-1.606 6.845-2.223 15.931-6.132 24.506 9.791 25.723 17.149.477 2.849.759 5.884.953 8.53 27.046-16.258 59.069-36.705 59.069-36.705v-37.976c0-.001-104.111-34.299-194.762-34.299zm-95.448-126.563 13.955 6.528 2.7 4.128-21.136 64.591-18.12-12.985c7.781-26.579 16.814-48.976 22.601-62.262zm-24.647 69.417 17.89 12.818-15.773 48.147-14.344 3.158c2.029-22.106 6.687-44.124 12.227-64.123zm-164.68 157.587-8.574-8.574 25.106-12.861 10.409 6.74zm91.32 47.204c-11.874 0-21.489-9.615-21.489-21.48s9.615-21.481 21.489-21.481c11.856 0 21.471 9.616 21.471 21.481s-9.615 21.48-21.471 21.48zm193.826-92.644-33.839 49.118h-74.224l-39.291-63.303c66.585-25.106 149.542-16.373 149.542-16.373zm82.798 91.956c-12.491 0-22.635-10.127-22.635-22.626 0-12.5 10.144-22.636 22.635-22.636 12.509 0 22.636 10.136 22.636 22.636.001 12.499-10.127 22.626-22.636 22.626z"/></svg>