<svg viewBox="0 0 512 512" xmlns="http://www.w3.org/2000/svg"><path d="m249.943 28.269h9.755v95.565h-9.755z"/><path d="m310.46 42.905c-20.517-12.864-35.859-13.853-43.932-13.031v51.029c24.99-6.454 38.07 6.584 55.828 2.969 19.224-3.897 33.869-29.26 32.952-33.164-.913-3.905-13.727 11.706-44.848-7.803z"/><path d="m328.356 160.499h-16.96v-24.746h-25.97v24.746h-16.952v-24.746h-25.976v24.746h-16.951v-24.746h-25.971v24.746h-16.955v-24.746h-25.971v56.008h13.88 12.091 16.955 25.971 16.951 25.976 16.952 25.97 16.96 12.09 13.877v-56.008h-25.967z"/><path d="m170.53 483.731h56.837v-57.391c0-17.203 13.941-31.14 31.136-31.14 17.194 0 31.136 13.937 31.136 31.14v57.392h50.808v-277.66h-169.917zm106.081-222.665h20.121v34.877h-20.121zm-67.067 0h20.118v34.877h-20.118z"/><path d="m0 483.731h154.746v-181.532h-154.746zm67.315-142.179h20.118v34.877h-20.118z"/><path d="m128.78 257.085h-16.956v-24.746h-25.971v24.746h-16.955v-24.746h-25.972v24.746h-16.954v-24.746h-25.972v24.746 31.254h25.972 16.954 25.972 16.955 25.971 16.956 12.091 13.875v-56h-25.966z"/><path d="m357.254 483.731h154.746v-181.532h-154.746zm67.31-142.179h20.122v34.877h-20.122z"/><path d="m486.029 232.339v24.746h-16.955v-24.746h-25.971v24.746h-16.955v-24.746h-25.968v24.746h-16.96v-24.746h-25.966v24.746 31.254h25.966 16.96 25.968 16.955 25.971 16.955 12.095 13.876v-56z"/></svg>