<svg fill="none" viewBox="0 0 12 13" xmlns="http://www.w3.org/2000/svg"><path d="m.324873 11.829c.203046.205.467005.3075.710657.3075.24366 0 .52792-.1025.71066-.3075l4.26396-4.30517 4.26395 4.30517c.2031.205.467.3075.7107.3075.2436 0 .5279-.1025.7106-.3075.4061-.41.4061-1.0455 0-1.4555l-4.26393-4.30523 4.26393-4.30519c.4061-.41002.4061-1.045548 0-1.455566-.4061-.410019-1.0355-.410019-1.4416 0l-4.26395 4.305186-4.24366-4.264184c-.40609-.4100185-1.03553-.4100185-1.441621 0-.406092.410018-.406092 1.045544 0 1.455564l4.263961 4.30519-4.243657 4.28473c-.4060912.3895-.4060912 1.0455 0 1.435z" fill="#000"/></svg>