<svg fill="none" viewBox="0 0 24 24" xmlns="http://www.w3.org/2000/svg"><g fill="#000"><path d="m11.25 2.07324c-.6063.1131-1.31841.35687-2.41228.7313l-.57281.19608c-3.00659 1.02916-4.50988 1.54374-4.88739 2.08161-.36927.52613-.37734 2.06734-.37752 5.12707l8.25-2.75005z"/><path d="m11.25 9.04039-8.25 2.75001v.2008c0 5.6381 4.23896 8.3741 6.89856 9.5359.51074.2231.84064.3672 1.35144.4324z"/><path d="m12.75 21.9595v-12.91911l8.25 2.75001v.2008c0 5.6381-4.239 8.3741-6.8986 9.5359-.5107.2231-.8406.3672-1.3514.4324z"/><path d="m12.75 7.45925v-5.38601c.6063.1131 1.3184.35687 2.4123.7313l.5728.19608c3.0066 1.02916 4.5099 1.54374 4.8874 2.08161.3693.52613.3773 2.06734.3775 5.12707z"/></g></svg>