<svg fill="none" viewBox="0 0 24 24" xmlns="http://www.w3.org/2000/svg"><path d="m11.7935 10.7934 8.6668-7.33659c.305-.25822.757-.23947 1.0397.04311.2826.28261.3013.73469.0431 1.03974l-7.3366 8.66674m-2.413-2.413-2.20565 1.8671c-.87165.7379-.92663 2.0631-.1191 2.8706.80755.8075 2.13275.7526 2.87055-.1191l1.8672-2.2056m-2.413-2.413 2.413 2.413m-3.8667 4.5436c0 1.7949-1.45503 3.25-3.24996 3.25h-4.58984l.2103-.1052c1.03599-.518 1.55246-1.7034 1.22637-2.8149-.06422-.2188-.10272-.4465-.0789-.6733.17152-1.6335 1.55312-2.9066 3.23207-2.9066 1.79493 0 3.24996 1.455 3.24996 3.25z" stroke="#000" stroke-linecap="round" stroke-linejoin="round" stroke-width="2"/></svg>