<svg fill="none" viewBox="0 0 24 24" xmlns="http://www.w3.org/2000/svg"><path d="m12.0678 2.14611c.3205-.13948.6753-.18047 1.0196-.11705.3442.06338.6604.22792.9099.47029l8.4617 8.21705c.1722.1673.3082.3674.4009.5877.0926.2203.1401.4568.1401.6953 0 .2386-.0475.475-.1401.6953-.0927.2204-.229.4207-.4012.588l-8.4615 8.217c-.2496.2423-.5656.4067-.9098.4701-.3443.0634-.6991.0224-1.0196-.117-.3204-.1394-.5907-.3702-.7795-.6612-.1886-.2908-.2882-.6299-.2883-.9752v-3.1956c-2.29455.0998-3.73564.5509-4.82445 1.2089-1.26983.7674-2.16272 1.8676-3.39718 3.3981-.26617.33-.71149.4563-1.11126.3152-.39978-.1412-.66711-.519-.66711-.943 0-3.5586.5013-7.0414 2.15451-9.659 1.57126-2.48782 4.1041-4.07305 7.84549-4.31005v-3.24854c.0001-.3453.0997-.68433.2883-.97514.1888-.29098.4591-.52177.7795-.66116z" fill="#000"/></svg>
