<svg viewBox="0 0 32 32" xmlns="http://www.w3.org/2000/svg"><path d="m14.017 9.302h3.934v-1.476h-3.934zm3.905.491h-3.905s-6.425 6.333-6.425 12.542c0 6.579 6.732 7.102 6.732 7.102s2.008.333 3.257 0c0 0 6.826-.8 6.826-7.07.001-6.272-6.485-12.574-6.485-12.574zm.289 13.33c-.158.32-.371.588-.643.802-.271.215-.588.376-.949.484-.046.014-.096.019-.143.031v1.092h-.983v-.964c-.012.001-.024.003-.036.003-.279 0-.538-.022-.778-.067s-.45-.101-.634-.164c-.184-.064-.337-.131-.459-.201s-.212-.132-.266-.186c-.055-.054-.093-.132-.116-.234-.022-.103-.034-.249-.034-.441 0-.129.004-.237.013-.325s.021-.158.041-.213c.019-.055.043-.093.074-.116.031-.022.068-.034.109-.034.059 0 .141.034.247.103s.242.145.409.228c.167.084.365.159.597.229.231.068.499.103.803.103.2 0 .379-.024.537-.072s.293-.115.403-.203c.111-.088.195-.196.253-.325.059-.13.088-.273.088-.433 0-.183-.051-.34-.15-.472-.1-.131-.231-.247-.391-.35-.16-.102-.342-.197-.546-.287s-.415-.185-.631-.284c-.217-.1-.427-.213-.631-.341-.204-.127-.387-.278-.547-.455s-.29-.387-.391-.628c-.1-.241-.149-.531-.149-.868 0-.388.072-.728.215-1.021s.338-.537.581-.73c.244-.193.531-.338.862-.434.17-.049.346-.085.526-.108v-1.035h.983v1.034c.04.005.079.003.118.009.191.029.371.068.537.118s.314.105.443.167.215.113.256.155c.043.041.07.076.086.105.014.029.025.068.037.116.01.048.018.108.021.182.004.072.006.163.006.271 0 .121-.004.224-.01.308-.006.083-.016.152-.031.206-.014.055-.035.094-.062.119s-.062.037-.109.037c-.045 0-.119-.028-.219-.086-.1-.059-.223-.121-.367-.189-.146-.068-.314-.13-.506-.187-.193-.056-.403-.083-.631-.083-.18 0-.336.021-.469.065-.134.043-.245.104-.335.18-.089.077-.156.17-.199.277-.044.107-.065.222-.065.342 0 .18.049.335.146.466s.229.248.394.35c.164.103.351.198.56.287.208.09.42.185.637.284.217.101.428.214.637.341s.395.279.557.456.293.385.393.624c.1.24.15.521.15.847-.001.422-.081.794-.239 1.115zm-.32-15.789 1.998-4.919s-1.26 1.046-1.998 1.046-1.907-1.015-1.907-1.015-1.26 1.015-1.998 1.015c-.737 0-1.937-.984-1.937-.984l2.029 4.857z"/></svg>