<svg viewBox="0 0 512 512" xmlns="http://www.w3.org/2000/svg"><path d="m501.553 219.44c-5.838-5.481-14.279-7.182-21.787-4.379l-45.01 16.794c.07-.233.14-.473.209-.699 7.058-15.38 11.026-32.47 11.026-50.499 0-66.914-54.25-121.164-121.164-121.164-50.997 0-93.165 37.696-109.548 69.965-3.408 6.717-20.289 21.251-39.117 9.356-18.829-11.887-31.237-33.341-44.599-54.514-17.843-28.246-51.059-19.535-62.441 8.922-26.762 66.898-107.295 109.439-47.571 114.471 35.677 3.012 60.95-16.352 71.355-23.782 10.412-7.431-2.974 26.764 17.842 31.22 20.133 4.309 22.462-20.941 41.066 5.854-24.528 40.134-65.408 65.408-105.922 92.777-41.889 28.301-50.57 56.121 20.436 43.9 30.77-5.303 33.644 1.7 19.574 9.48-13.3 7.36-45.29 20.381-65.283 26.888-19.085 6.219-14.264 36.85 32.843 32.502 36.633-3.378 70.718-4.123 95.223-12.105 19.986-6.506 26.919-.683.155 10.218-59.684 24.318 13.386 53.52 137.337-12.78 46.742-25.002 78.708-52.728 102.909-85.882 4.092 4.79 10.218 7.376 19.326 2.633 22.688-11.81 32.378.497 16.514 14.364-18.611 16.29-16.918 54.918 35.104 21.438 52.029-33.488 50.857-112.918 50.857-112.918 3.967-17.455-3.495-26.571-9.334-32.06zm-216.922-59.452s14.45 28.906 31.314 38.542c-40.949 24.077-57.806-19.271-31.314-38.542zm63.412 51.105c19.023-3.897 49.063-13.378 49.063-13.378 8.922 24.528-24.527 55.748-49.063 13.378z"/></svg>