<svg fill="none" viewBox="0 0 24 24" xmlns="http://www.w3.org/2000/svg"><path clip-rule="evenodd" d="m5.44152 5.00024c-.43333 0-.80593.27399-.93305.67232-.38841 1.21708-.96719 3.08074-1.47295 4.90944.74133-.3722 1.57844-.5818 2.46448-.5818 2.58018 0 4.7454 1.7767 5.339 4.1735.3349-.1071.7208-.1735 1.161-.1735s.8261.0664 1.161.1735c.5936-2.3968 2.7588-4.1735 5.339-4.1735.886 0 1.7231.2096 2.4645.5818-.5058-1.8287-1.0846-3.69236-1.473-4.90944-.1271-.39833-.4997-.67232-.933-.67232h-1.5585c-.5523 0-1-.44771-1-1 0-.55228.4477-1 1-1h1.5585c1.2884 0 2.442.82238 2.8384 2.06427.4193 1.31389 1.0633 3.38937 1.6034 5.37919.2699.9943.5167 1.9771.6966 2.8381.1072.5124.1963 1.0075.2496 1.4484.0353.2516.0535.5087.0535.77 0 3.0376-2.4624 5.5-5.5 5.5-2.7258 0-4.9884-1.9828-5.4242-4.5848-.2586-.311-.6872-.4152-1.0758-.4152s-.8172.1042-1.0758.4152c-.4358 2.602-2.69842 4.5848-5.4242 4.5848-3.03757 0-5.5-2.4624-5.5-5.5 0-.2613.0182295-.5184.0534864-.77.0532826-.4409.1424616-.936.2495826-1.4484.179965-.861.426683-1.8438.696611-2.8381.54016-1.98982 1.18416-4.0653 1.60346-5.37919.39633-1.24189 1.54999-2.06427 2.83838-2.06427h1.55848c.55228 0 1 .44772 1 1 0 .55229-.44772 1-1 1zm-3.4316 10.49996c0 1.9276 1.56256 3.4901 3.49008 3.4901s3.49008-1.5625 3.49008-3.4901c0-1.9275-1.56256-3.49-3.49008-3.49s-3.49008 1.5625-3.49008 3.49zm12.99998 0c0 1.9276 1.5626 3.4901 3.4901 3.4901s3.4901-1.5625 3.4901-3.4901c0-1.9275-1.5626-3.49-3.4901-3.49s-3.4901 1.5625-3.4901 3.49z" fill="#0f0f0f" fill-rule="evenodd"/></svg>