<svg viewBox="0 0 256 256" xmlns="http://www.w3.org/2000/svg"><path d="m328 222c1.2-.2 2.5-.4 3.6-.7 6.4-1.9 10.8-5.5 12.2-10.2l-9.9-2.7z" fill="none"/><path d="m343.3 180.5c-1.7 0-3.1 1.4-3.1 3.1s1.4 3.1 3.1 3.1c.9 0 1.7-.4 2.3-1 .5-.6.8-1.3.8-2.1 0-.4-.1-.7-.2-1-.5-1.2-1.6-2.1-2.9-2.1z" fill="none"/><path d="m246.1 62.3-27.4-26.8-2.2-23.9-16.1 15.7c-6.9.4-12.8 4.5-15.8 10.4l-8.3 13.3-20.9 20.5c5.7 7.3 14.9 12.8 25.7 16.1 8 2.4 16.7 1.6 20.4 1.6l-2.8 6.4s-12.3.3-19.4-2c-11.1-3.6-21.4-9.9-28-17.4l-121.3 6.2c-7 0-12.9 2.5-17.8 7.5s-7.3 11-7.3 17.9v42.4 24.7l17.9-24.7.7-48.5 8.6-7.6v52.7l-9.3 14.6.1 65.4c0 5.2 4.2 9.4 9.4 9.4s9.4-4.2 9.4-9.4l.1-54.4h-.1l34.1-41 3.6 4.1-24.9 29.8 22.9 65.7c1.9 4.8 7.3 7.2 12.1 5.4 4.8-1.9 7.2-7.3 5.4-12.1l-18.7-55 14-18.9 44.1.1 17 .1v76.2c0 5.2 4.2 9.4 9.4 9.4s9.4-4.2 9.4-9.4v-66l28.5-65.1c2.9-.2 5.7-.6 8.4-1.4 8.8-2.6 14.8-7.8 16.9-14.8l14.2 3.8.3.2h.3.1c3.2.4 6.1-.4 8.7-2.4 2.8-2.2 4.1-5 4.1-8.4.2-4.5-1.7-7.9-5.5-10.4zm-40.8 25.9c-1.2.3-2.5.5-3.7.7l6.1-14 10.2 2.8c-1.5 4.9-6 8.6-12.6 10.5zm14.4-36.6c-.6.6-1.4 1.1-2.4 1.1-1.8 0-3.2-1.4-3.2-3.2s1.4-3.2 3.2-3.2c1.4 0 2.6.9 3 2.2.1.3.2.7.2 1 0 .8-.3 1.5-.8 2.1z"/></svg>