<svg enable-background="new 0 0 85.07 122.88" viewBox="-18.91 0 122.88 122.88" xmlns="http://www.w3.org/2000/svg"><path d="m60.78 43.44c-1.49.81-3.35.26-4.15-1.22-.81-1.49-.26-3.35 1.23-4.15 7.04-3.82 10.32-8.76 10.98-13.59.35-2.58-.05-5.17-1.02-7.57-.99-2.43-2.56-4.64-4.55-6.42-3.87-3.46-9.3-5.28-14.97-3.87-2.3.57-4.29 1.72-6.03 3.34-1.85 1.72-3.45 3.97-4.85 6.63-.79 1.5-2.64 2.07-4.13 1.29-1.5-.79-2.07-2.64-1.29-4.13 1.72-3.26 3.73-6.06 6.11-8.28 2.49-2.31 5.38-3.97 8.74-4.8 7.8-1.93 15.23.53 20.51 5.25 2.68 2.4 4.81 5.39 6.15 8.69 1.35 3.33 1.9 6.99 1.39 10.7-.91 6.62-5.15 13.26-14.12 18.13zm-23.46 24.17c-11.6-15.58-11.88-30.34 2.2-44.06l-10.14-5.6c-8.12-3.16-23.02 20.13-17.26 26.35l7.9 11.72-1.63 3.4c-.45 1.01-.01 1.72 1.09 2.21l1.07.29-20.55 40.67 4.16 8.87 8.32-2.45 2.14-4.16-2.05-3.84 4.52-.97 1.05-2.04-2.36-3.6 1.55-3.01 4.51-.57 1.47-2.85-2.52-3.29 1.61-3.12 4.6-.75 6.26-11.95 1.06.58c1.84 1.12 2.79.4 3-1.83zm21.83 9.77-3.06 11.42-4.25 1.68-.89 3.33 3.1 2.63-.81 3.03-4.2 1.48-.86 3.2 3.01 2.95-.58 2.17-4.13 1.87 2.76 3.25-1.19 4.43-7.45 4.07-5.82-7.63 11.1-41.43-2.69-.72c-.55-.15-.89-.72-.74-1.28l1.13-4.21c-8.14-6.17-12.17-16.85-9.37-27.32 3.6-13.45 17.18-21.57 30.64-18.55.06.72.05 1.45-.05 2.18-.25 1.82-1.04 3.69-2.5 5.5-.2.24-.41.49-.63.73-4.3-.28-8.33 2.5-9.49 6.82-.5 1.86-.39 3.74.2 5.43.14.6.37 1.18.67 1.75.71 1.3 1.75 2.29 2.97 2.92.8.53 1.7.93 2.67 1.2 4.83 1.29 9.78-1.49 11.22-6.24 1.46-1.29 2.73-2.65 3.82-4.05 2.12-2.73 3.57-5.63 4.43-8.58 5.84 6.3 8.41 15.37 6.02 24.29-2.8 10.47-11.65 17.71-21.77 18.98l-1.13 4.21c-.15.55-.72.89-1.28.74z"/></svg>