<svg enable-background="new 0 0 1000 1000" viewBox="0 0 1000 1000" xmlns="http://www.w3.org/2000/svg"><g transform="matrix(.1 0 0 -.1 0 511)"><path d="m5704.9 4980.1c-74.8-16.6-228.7-74.8-345.1-133-114.3-56.1-224.5-103.9-243.2-103.9s-116.4 41.6-216.2 93.5c-316 162.1-548.8 191.2-765 95.6-93.5-41.6-237-160.1-299.3-249.4l-39.5-54h201.6c247.4 0 313.9-31.2 313.9-145.5 0-99.8-45.7-114.3-343-114.3-1024.8 0-1588.1-303.5-1839.7-993.6-95.6-264-126.8-442.8-139.3-835.7-14.5-467.7 22.9-798.2 164.2-1486.3 103.9-509.3 106-528 108.1-893.9 2.1-301.4-4.2-397-33.3-490.6-47.8-153.8-151.7-303.5-261.9-382.5-85.2-58.2-101.9-62.3-291-62.3-176.7 0-214.1 6.2-307.7 56.1-95.4 49.8-203.5 151.7-274.2 257.7-43.7 64.5-14.6-245.3 37.4-417.8 145.5-461.5 411.6-794.1 744.2-929.2 103.9-41.6 153.8-47.8 409.5-47.8 328.4 0 467.7 29.1 706.8 143.4 81.1 37.4 187.1 106 239.1 151.8l91.5 83.1-85.2 185c-110.2 239.1-205.8 540.5-247.4 783.7-52 293.1-31.2 810.7 41.6 1074.7 120.6 428.2 349.2 827.3 671.4 1164.1 195.4 205.8 353.4 332.6 575.8 461.5 81.1 47.8 151.8 89.4 158 93.5 6.2 6.2-16.6 33.3-52 60.3-174.6 141.4-548.8 149.7-933.3 20.8-234.9-79-345.1-91.5-422-47.8-47.8 27-141.4 135.1-126.8 149.7 4.2 4.2 45.7-4.2 89.4-20.8 45.7-16.6 99.8-29.1 118.5-31.2 20.8 0 114.3 70.7 207.9 155.9 95.6 87.3 222.4 191.3 284.8 232.8 126.8 85.2 320.1 151.7 436.5 151.7 203.7 0 455.2-137.2 683.9-372.1l139.1-141.3 141.4 33.3 141.4 33.3-12.5 114.3c-25 222.4-101.9 392.9-228.7 505.1-149.7 133-511.4 237-746.3 212l-106-10.4 83.1 31.2c45.7 18.7 168.4 47.8 270.2 64.4 343 60.3 611.1 0 806.5-178.8 135.1-122.6 218.3-284.8 259.8-509.3l31.2-166.3 386.7-2.1c380.4-2.1 706.8-35.3 1020.6-103.9l135.1-29.1 116.4 124.7c210 222.4 303.5 457.3 324.3 800.3 14.6 247.4-14.6 455.2-95.6 692.2-83.2 241.1-174.6 384.6-365.9 575.8-187.1 189.2-376.2 301.4-594.5 353.4-164 37.5-540.3 37.5-725.3-2z"/><path d="m5413.9 2217.5c-1014.4-168.4-1773.2-792-2026.8-1665.1-112.3-386.7-112.3-814.9 2.1-1209.8 72.8-253.6 253.6-613.2 417.8-829.4 151.7-201.6 164.2-237 226.6-644.4 24.9-160.1 37.4-367.9 37.4-602.8l2.1-357.5 103.9-22.9c58.2-12.5 731.7-153.8 1496.7-313.9 767.1-160.1 1415.6-297.3 1444.7-303.5 45.7-12.5 41.6-2.1-41.6 91.5-126.8 141.3-243.2 345.1-272.3 478.1-49.9 216.2 39.5 357.5 276.5 442.8 72.8 25 185 64.5 251.5 87.3 64.5 22.9 118.5 47.8 118.5 56.1-2.1 6.3-158 89.4-349.2 182.9-538.4 264-1072.6 604.9-1675.4 1072.6-367.9 284.8-449 365.8-449 444.8 0 85.2 83.1 172.5 164.2 172.5 47.8 0 124.7-49.9 328.4-212 814.9-654.8 1708.7-1195.3 2270-1376.1 126.8-41.6 237-74.8 243.2-74.8 8.3 0 8.3 106 2.1 234.9l-12.5 237 122.6 91.4c68.6 49.9 122.7 95.6 124.7 101.9 0 6.2-81.1 27-180.9 47.8-860.6 174.6-1860.5 688.1-2594.2 1328.3l-81.1 72.8 64.4 74.8c99.9 112.2 124.9 216.2 83.3 340.9-18.7 54-27 106-18.7 114.3 8.3 6.2 648.6 189.2 1423.9 403.3 927.1 257.8 1407.3 399.1 1407.3 417.8 0 45.7-397 426.1-575.8 552.9-347.2 247.4-798.2 442.8-1228.5 536.3-266.1 56.2-850.2 72.8-1105.9 29.2zm-295.2-2018.5c25-29.1 45.7-79 45.7-114.3 0-87.3-99.8-185-187.1-185-79 0-187.1 97.7-187.1 170.5 4.2 176.6 212.1 259.8 328.5 128.8z"/><path d="m8313.7 735.4c-114.3-39.5-209.9-74.8-212-74.8-2.1-2.1 70.7-243.2 160.1-538.4l162.1-536.3-237-440.7c-131-243.2-237-446.9-237-453.2 0-22.9 482.3-106 498.9-87.3 10.4 8.3 120.6 209.9 247.4 444.8 162.2 303.5 230.8 451.1 230.8 498.9 0 97.7-355.5 1266-382.5 1263.9-12.5-2.1-116.4-35.4-230.8-76.9z"/><path d="m7534.2 498.4c-120.6-35.3-220.3-64.4-222.4-66.5s45.7-174.6 108.1-380.4c62.4-207.9 114.3-388.7 114.3-403.3 0-12.5-76.9-170.4-170.5-349.2-95.6-178.8-174.6-330.5-178.8-338.8-8.3-16.6 101.8-68.6 322.2-151.7l128.9-49.9 207.9 392.9c124.7 230.7 209.9 415.7 209.9 451.1 0 31.2-60.3 259.8-135.1 505.1s-135.1 446.9-135.1 451.1c.1 10.3-27 4-249.4-60.4z"/><path d="m6800.4 288.4c-201.6-58.2-224.5-68.6-216.2-106 4.2-24.9 31.2-124.7 58.2-222.4l47.8-178.8-79-153.8c-43.7-85.2-97.7-182.9-118.5-218.3l-39.5-64.4 79-52c41.6-29.1 139.3-85.2 214.1-126.8l135.1-76.9 160.1 299.3c91.5 168.4 160.1 322.2 160.1 355.5 0 64.5-149.7 615.3-166.3 611.2-6.2-.1-112.3-31.2-234.9-66.6z"/><path d="m6068.7 78.5c-222.4-64.5-228.7-68.6-222.4-122.7 2.1-31.2-8.3-79-27-106-33.3-49.9-33.3-49.9 170.5-195.4l203.7-147.6 68.6 118.5c108.1 191.3 120.6 249.5 74.8 395l-39.5 122.6z"/><path d="m3734.3-3771.3c-106-214.1-189.2-390.8-185-397.1 6.2-4.2 690.1-110.2 1523.7-237 833.6-124.7 1754.4-264 2045.5-307.7 291-43.6 532.1-79 532.1-76.9 8.3 8.3-345.1 719.2-355.5 719.2-8.3 0-765 153.8-1681.7 343s-1671.3 343-1675.5 343c-6.1.1-97.6-174.5-203.6-386.5z"/></g></svg>