<svg fill="none" viewBox="0 0 24 24" xmlns="http://www.w3.org/2000/svg"><g stroke="#000" stroke-width="2"><path d="m20 21h-17c-.55228 0-1-.4477-1-1v-16c0-.55228.44771-1 1-1h4.73381c.35126 0 .67677.1843.85749.4855l1.2174 2.029c.18072.3012.5062.4855.8575.4855h9.3338c.5523 0 1 .44772 1 1v3" stroke-linecap="round"/><path d="m4.79903 10.7369-2.45454 9c-.1735.6361.30539 1.2631.96476 1.2631h15.92695c.451 0 .8461-.3018.9648-.7369l2.4545-9c.1735-.6361-.3054-1.2631-.9647-1.2631h-15.927c-.45096 0-.84611.3018-.96477.7369z"/></g></svg>