<svg viewBox="0 0 24 24" xmlns="http://www.w3.org/2000/svg"><g fill="none" stroke="#020202" stroke-miterlimit="10" stroke-width="1.91"><path d="m14.86 6.89v-1.57h-5.72v1.57a1.91 1.91 0 0 1 -1.2 1.77l-1.78.71a2.88 2.88 0 0 0 -1.8 2.63v7.61a2.87 2.87 0 0 0 2.87 2.89h9.54a2.87 2.87 0 0 0 2.87-2.86v-7.64a2.88 2.88 0 0 0 -1.8-2.66l-1.78-.71a1.91 1.91 0 0 1 -1.2-1.74z"/><path d="m10.09 1.5h3.82v3.82h-3.82z"/><path d="m7.23 5.32h9.54"/><path d="m4.36 12h15.28"/><path d="m7.23 16.77h1.91"/><path d="m11.05 18.68h1.9"/><path d="m14.86 15.82h1.91"/></g></svg>