<svg viewBox="0 0 32.031 32.031" xmlns="http://www.w3.org/2000/svg"><path d="m23.625 18.764c-.177.277-.384.531-.604.762-2.053 3.024-8.75 8.344-9.885 10.131-1.479 2.332-4.521 3.074-6.76 1.653-2.239-1.419-2.911-4.461-1.432-6.792 1.937-3.06 7.063-3.254 8.063-5.459 0-.002 0-.004 0-.005 0-.203.126-.42.007-.592-1.814-2.641-1.721-6.973-.319-9.183 1.72-2.713 4.932-1.208 8.178.851 3.242 2.056 4.473 5.921 2.752 8.634zm-7.58-12.563c1.422.902 3.396.343 4.404-1.251 1.011-1.594.677-3.617-.746-4.521-1.424-.899-3.394-.339-4.405 1.255-1.01 1.593-.677 3.617.747 4.517zm4.592-.622c-.519.818-.377 1.836.312 2.274s1.671.13 2.189-.688c.519-.817.377-1.835-.312-2.273s-1.67-.131-2.189.687zm2.512 2.481c-.444.701-.312 1.581.294 1.966.606.384 1.458.127 1.901-.574.444-.701.313-1.581-.293-1.965-.605-.385-1.459-.128-1.902.573zm3.689 4.098c.465-.735.393-1.616-.164-1.968-.558-.353-1.386-.042-1.851.692s-.394 1.616.164 1.969c.558.352 1.387.042 1.851-.693zm.69 1.046c-.412-.261-1.025-.032-1.371.513s-.293 1.198.119 1.459 1.025.031 1.371-.514c.345-.544.293-1.197-.119-1.458z"/></svg>