<svg viewBox="0 0 170.879 170.879" xmlns="http://www.w3.org/2000/svg"><path d="m143.8 136.363 4.277-4.277c.011-.011.011-.022.026-.033l7.092-7.098c2.105-2.099 2.105-5.5 0-7.6-2.101-2.1-5.495-2.1-7.601 0l-3.324 3.322-35.154-35.155 11.092-11.09c.173-.17.342-.359.487-.56l49.093-64.935c1.617-2.134 1.418-5.131-.477-7.034-1.896-1.903-4.887-2.118-7.029-.518l-65.25 48.778c-.205.149-.399.323-.584.504l-11.091 11.09-11.09-11.09c-.17-.17-.359-.339-.559-.488l-64.935-49.093c-2.128-1.612-5.131-1.412-7.033.48-1.903 1.892-2.124 4.884-.517 7.028l48.777 65.254c.15.205.321.405.505.58l11.094 11.089-35.161 35.161-3.325-3.329c-2.102-2.099-5.501-2.099-7.601 0-2.103 2.101-2.103 5.503 0 7.604l7.126 7.127 4.273 4.273-25.334 25.348c-2.103 2.101-2.103 5.503 0 7.602 1.049 1.051 2.424 1.576 3.8 1.576s2.754-.525 3.801-1.576l25.344-25.344 4.276 4.277 7.126 7.124c1.05 1.046 2.425 1.575 3.8 1.575s2.754-.529 3.801-1.575c2.102-2.104 2.102-5.506 0-7.602l-3.328-3.322 35.161-35.156 35.161 35.156-3.324 3.322c-2.104 2.101-2.104 5.497 0 7.602 1.045 1.046 2.421 1.575 3.802 1.575 1.374 0 2.751-.529 3.795-1.575l7.112-7.113c.006-.005.011-.005.016-.011l4.279-4.271 25.344 25.338c1.045 1.051 2.421 1.576 3.8 1.576 1.376 0 2.752-.525 3.797-1.576 2.104-2.099 2.104-5.501 0-7.602z"/></svg>