<svg viewBox="0 0 512 512" xmlns="http://www.w3.org/2000/svg"><path d="m214.52 258.575 25.228-25.228c-29.355-13.49-65.293-8.156-89.444 15.978-30.984 30.985-30.984 81.394 0 112.362 30.984 30.977 81.385 30.977 112.371 0 24.15-24.134 29.476-60.08 15.978-89.427l-25.22 25.228c2.497 14.723-1.89 30.385-13.231 41.735-18.581 18.581-48.836 18.581-67.417 0-18.597-18.589-18.597-48.836 0-67.417 11.325-11.35 27.012-15.727 41.735-13.231z"/><path d="m286.266 186.822c-55.582-37.389-131.794-31.552-180.899 17.568-55.775 55.751-55.775 146.492 0 202.251 55.76 55.76 146.484 55.76 202.252 0 49.112-49.112 54.949-125.325 17.56-180.906l-23.016 23.016c25.31 42.666 19.643 98.766-17.016 135.418-43.364 43.372-113.943 43.372-157.315 0-43.372-43.373-43.372-113.935 0-157.323 36.659-36.643 92.743-42.31 135.418-17.008z"/><path d="m348.008 202.906c49.582 68.3 43.623 164.676-17.917 226.207-68.146 68.163-179.049 68.163-247.196 0-68.171-68.163-68.171-179.042 0-247.196 61.532-61.548 157.898-67.498 226.2-17.924l22.683-22.683c-80.924-61.832-197.412-55.824-271.363 18.127-80.55 80.55-80.55 211.606 0 292.157 80.55 80.542 211.606 80.542 292.158 0 73.943-73.952 79.95-190.44 18.119-271.379z"/><path d="m511.394 70.69c-1.337-3.486-4.726-5.642-8.577-5.464l-58.8 2.757 2.756-58.784c.187-3.858-1.97-7.256-5.472-8.601-3.469-1.338-7.604-.389-10.433 2.448l-62.748 62.748-3.251 69.396-154.865 154.864c-5.14-1.167-10.742.219-14.746 4.208-6.21 6.226-6.21 16.278 0 22.489 6.21 6.194 16.262 6.194 22.464 0 4.013-4.013 5.399-9.607 4.232-14.755l154.866-154.866 69.394-3.251 62.748-62.748c2.814-2.821 3.786-6.955 2.432-10.441z"/></svg>