<svg viewBox="0 0 512 512" xmlns="http://www.w3.org/2000/svg"><path d="m166.082 260.125v45.764c0 9.634 19.267 48.168 89.912 48.168 70.654 0 89.921-38.534 89.921-48.168 0-9.633 0-45.764 0-45.764 25.683 16.062 51.382-19.258 51.382-35.32s0-28.918 0-83.506c0-54.596-41.752-141.299-141.302-141.299-99.542 0-141.29 86.703-141.29 141.299v83.506s25.695 51.381 51.377 35.32zm49.575 61.007h-12.572c-5.03 0-9.104-4.066-9.104-9.099v-19.802h21.676zm0-37.725h-21.676v-19.793c0-5.033 4.074-9.108 9.104-9.108h12.572zm34.118 37.725h-21.675v-28.9h21.676v28.9zm0-37.725h-21.675v-28.9h21.676v28.9zm34.123 37.725h-21.68v-28.9h21.68zm0-37.725h-21.68v-28.9h21.68zm34.119 28.626c0 5.033-4.074 9.099-9.104 9.099h-12.576v-28.9h21.68zm0-28.626h-21.68v-28.9h12.576c5.03 0 9.104 4.074 9.104 9.108zm-5.819-157.618c19.948 0 36.122 16.178 36.122 36.122 0 19.951-16.174 36.138-36.122 36.138-19.956 0-36.126-16.187-36.126-36.138 0-19.944 16.17-36.122 36.126-36.122zm-56.203 63.687 19.877 31.046c6.207 9.934-14.906 22.348-19.877 1.244-4.958 21.104-26.075 8.69-19.86-1.244zm-56.195-63.687c19.956 0 36.126 16.178 36.126 36.122 0 19.951-16.17 36.138-36.126 36.138-19.948 0-36.122-16.187-36.122-36.138 0-19.944 16.174-36.122 36.122-36.122z"/><path d="m396.379 428.588c-8.436-3.932-17.928-2.872-25.132 1.979-3.728 2.512-10.414 6.746-16.212 6.628l-209.419-97.847c-3.798-4.374-4.849-12.222-5.317-16.696-.898-8.641-6.182-16.588-14.618-20.536-12.801-5.986-28.028-.451-34.006 12.347-3.239 6.92-3.01 14.525-.188 21.02-6.795 1.995-12.76 6.695-15.999 13.616-5.981 12.814-.446 28.042 12.352 34.018 8.431 3.948 17.927 2.88 25.132-1.97 3.727-2.495 10.426-6.744 16.216-6.62l209.422 97.847c3.794 4.374 4.838 12.206 5.305 16.688.902 8.632 6.178 16.596 14.626 20.528 12.798 5.978 28.025.459 34.002-12.347 3.243-6.92 3.013-14.525.188-21.012 6.795-2.004 12.768-6.695 16.007-13.616 5.973-12.806.443-28.033-12.359-34.027z"/><path d="m436.512 349.098c-3.243-6.92-9.212-11.628-16.007-13.623 2.822-6.495 3.055-14.092-.184-21.021-5.982-12.798-21.204-18.324-34.006-12.338-8.444 3.941-13.72 11.896-14.626 20.536-.468 4.466-1.51 12.313-5.301 16.679l-96.979 45.313 45.86 21.43 67.54-31.556c5.793-.117 12.488 4.115 16.216 6.62 7.205 4.858 16.696 5.91 25.132 1.97 12.802-5.986 18.333-21.212 12.355-34.01z"/><path d="m156.962 437.187c-5.786.117-12.488-4.124-16.216-6.628-7.204-4.842-16.692-5.91-25.131-1.978-12.798 5.977-18.329 21.212-12.348 34.034 3.236 6.912 9.204 11.612 15.999 13.607-2.83 6.495-3.055 14.092.188 21.012 5.973 12.798 21.204 18.333 34.001 12.347 8.436-3.932 13.72-11.896 14.622-20.536.468-4.466 1.515-12.313 5.318-16.688l67.498-31.539-45.86-21.42z"/></svg>