<svg viewBox="0 -.5 21 21" xmlns="http://www.w3.org/2000/svg"><path d="m370.21875 484c0-.552.4704-1 1.05-1s1.05.448 1.05 1-.4704 1-1.05 1-1.05-.448-1.05-1zm11.68125 13c0 .552-.4704 1-1.05 1h-1.05v-4c0-1.105-.93975-2-2.1-2h-8.4c-1.16025 0-2.1.895-2.1 2v4h-1.05c-.5796 0-1.05-.448-1.05-1v-9.956c0-.133.05565-.26.1533-.353l1.9467-1.854v1.163c0 1.105.93975 2 2.1 2h8.4c1.16025 0 2.1-.895 2.1-2v-4h1.05c.5796 0 1.05.448 1.05 1zm-4.2 1h-8.4v-3c0-.552.4704-1 1.05-1h6.3c.5796 0 1.05.448 1.05 1zm-8.4-15.163.87885-.837h7.52115v3c0 .552-.4704 1-1.05 1h-6.3c-.5796 0-1.05-.448-1.05-1zm12.6-2.837h-12.1653c-.27825 0-.54495.105-.74235.293l-5.6847 5.414c-.1974.188-.30765.442-.30765.707v11.586c0 1.105.93975 2 2.1 2h16.8c1.16025 0 2.1-.895 2.1-2v-16c0-1.105-.93975-2-2.1-2z" fill-rule="evenodd" transform="translate(-363 -480)"/></svg>