<svg viewBox="0 0 32 32" xmlns="http://www.w3.org/2000/svg"><path d="m26.693 23.878h-4.43l-.042-.076c.016-2.709 1.069-5.48 3.069-7.666 1.495-1.633 2.623-3.783 3.202-5.918l-2.573-1.556 2.388-.431-2.706-1.61 3.253-.552c-.326-2.442-1.8-4.25-4.828-4.25-2.955.574-11.374.749-15.729.185-.552-.18-1.108-.285-1.651-.304-.004-.001-.008-.002-.012-.003.002.001.005.002.007.003-1.416-.047-2.738.501-3.647 1.882-1.263 1.919.082 5.213 3.046 5.213.167 0 .32-.009.46-.026v.023h3.702c-.56 2.257-1.949 4.767-3.557 7.296-.135.212-.266.429-.393.649l2.177 2.23-3.511.588c-2.042 5.364-1.711 11.361 3.013 11.361l.489.003v.007h5.349v-.01h14.097c4.25 0 4.833-7.039-1.171-7.039zm-12.559 3.385c0-.029-.001-.059-.002-.089.001.03.002.059.002.089zm-.137-1.119c.001.004.001.007.002.011-.001-.004-.001-.007-.002-.011-.168-.741-.649-1.358-1.278-1.755.629.398 1.11 1.015 1.278 1.755zm.131.927c-.001-.03-.003-.06-.005-.09.002.03.004.06.005.09zm-.014-.2c-.003-.03-.006-.06-.009-.09.003.03.006.06.009.09zm-.024-.209c-.004-.029-.008-.058-.012-.087.005.029.008.058.012.087zm-.035-.223c-.005-.025-.008-.05-.013-.076.005.026.009.051.013.076zm-6.662-18.006c.876-.746-.036-2.509-1.085-3.976h3.617c.605 1.167.667 2.514.358 3.976zm2.788 16.321c1.618-.538 3.452.49 3.816 2.094.062.274.102.533.122.778.002-.026.004-.052.005-.078-.04.579-.212 1.061-.488 1.459h-.032c-.031.044-.063.087-.096.128l.05-.022c-.463.605-1.173 1.009-2.018 1.27h-.878l.043-.019c-.925 0-1.988-.087-1.988-.087 1.373-.022 1.964-.603 2.19-1.269-.978.355-2.02-.284-2.348-1.227-.443-1.273.391-2.618 1.622-3.027zm3.951 2.608c-.001.029-.001.058-.002.086.001-.028.001-.057.002-.086zm-.569 1.746c.025-.033.049-.066.073-.099-.023.034-.048.067-.073.099z"/></svg>