<svg viewBox="0 0 512.003 512.003" xmlns="http://www.w3.org/2000/svg"><path d="m456.475 120.576-35.157-19.942c-21.316-12.092-42.359-26.863-65.314-45.85 10.957-12.621 27.076-20.651 45.065-20.651 4.719 0 8.533-3.823 8.533-8.533s-3.814-8.533-8.533-8.533c-23.194 0-43.981 10.377-58.069 26.692-7.236-6.289-14.635-12.894-22.383-20.096-16.172-15.036-39.724-23.663-64.616-23.663s-48.444 8.627-64.614 23.663c-37.888 35.217-68.941 58.957-100.702 76.971l-35.157 19.942c-3.379 1.911-5.035 5.854-4.045 9.6s4.378 6.357 8.252 6.357h104.021c-1.033 5.623-1.621 11.324-1.621 17.067v.043c-18.714-.213-34.133 15.232-34.133 34.091 0 18.825 15.309 34.133 34.133 34.133 0 36.386 20.855 67.934 51.2 83.507v38.195c-5.786.964-11.494 2.133-17.067 3.644v79.454h119.467v-79.454c-5.572-1.51-11.281-2.68-17.067-3.644v-38.195c30.345-15.573 51.2-47.121 51.2-83.507 18.825 0 34.133-15.309 34.133-34.133 0-18.859-15.36-34.338-34.133-34.091v-.043c0-5.743-.589-11.443-1.621-17.067h104.021c3.874 0 7.262-2.611 8.252-6.357s-.666-7.689-4.045-9.6zm-294.34 84.224c-9.412 0-17.067-7.654-17.067-17.067s7.654-17.067 17.067-17.067zm187.733-34.133c9.412 0 17.067 7.654 17.067 17.067s-7.655 17.066-17.067 17.066zm-68.267 180.198v16.068c0 14.114-11.486 25.6-25.6 25.6s-25.6-11.486-25.6-25.6v-16.068-38.69c.529.145 1.075.196 1.604.333 3.063.811 6.178 1.468 9.353 1.963.956.154 1.903.324 2.867.444 3.866.486 7.782.819 11.776.819s7.91-.333 11.776-.819c.964-.12 1.911-.29 2.867-.444 3.174-.495 6.289-1.152 9.353-1.963.529-.137 1.075-.188 1.604-.333zm55.817-231.398h-162.833-82.518l7.031-3.994c32.973-18.697 65.007-43.153 103.902-79.309 13.056-12.134 32.375-19.098 53.001-19.098s39.945 6.963 53.001 19.098c8.397 7.808 16.418 14.967 24.252 21.743-5.717 10.735-8.986 22.972-8.986 35.959 0 4.71 3.814 8.533 8.533 8.533s8.533-3.823 8.533-8.533c0-8.781 1.954-17.101 5.367-24.619 23.134 19.012 44.484 33.911 66.202 46.225l7.031 3.994h-82.516z"/><path d="m323.61 443.736h-135.219c-9.771 0-17.724 7.945-17.724 17.724v50.543h170.667v-50.543c0-9.78-7.953-17.724-17.724-17.724zm-16.401 34.022-102.4.111h-.009c-4.71 0-8.525-3.814-8.533-8.525-.009-4.719 3.806-8.542 8.525-8.542l102.4-.111h.009c4.71 0 8.525 3.814 8.533 8.525s-3.806 8.542-8.525 8.542z"/><path d="m332.801 352.791v75.264c14.711 4.062 25.6 17.425 25.6 33.399v50.543h68.267c4.719 0 8.533-3.814 8.533-8.533 0-67.993-41.881-126.797-102.4-150.673z"/><path d="m179.201 352.791c-60.518 23.876-102.4 82.679-102.4 150.673 0 4.719 3.814 8.533 8.533 8.533h68.267v-50.543c0-15.974 10.889-29.338 25.6-33.399z"/></svg>