<svg fill="none" viewBox="0 0 24 24" xmlns="http://www.w3.org/2000/svg"><g fill="#000"><path clip-rule="evenodd" d="m3.59938 6.22413c-.23738-1.4038 1.08064-2.57775 2.47368-2.20329l1.05471.28351c.83708.22502 1.72528-.11343 2.1911-.83492l1.01093-1.56575c.7779-1.204905 2.5625-1.204907 3.3404 0l1.0109 1.56575c.4658.72149 1.354 1.05994 2.1911.83492l1.0547-.28351c1.3931-.37446 2.7111.79949 2.4737 2.20329l-.2601 1.53852c-.1337.7907.2368 1.58155.9342 1.99398l.9641.57017c1.2816.7579 1.2816 2.5885 0 3.3464l-.9641.5702c-.6974.4124-1.0679 1.2033-.9342 1.994l.2601 1.5385c.2374 1.4038-1.0806 2.5777-2.4737 2.2033l-1.0547-.2835c-.8371-.2251-1.7253.1134-2.1911.8349l-1.0109 1.5657c-.7779 1.2049-2.5625 1.2049-3.3404 0l-1.01093-1.5657c-.46582-.7215-1.35402-1.06-2.1911-.8349l-1.05471.2835c-1.39304.3744-2.71106-.7995-2.47368-2.2033l.26016-1.5385c.1337-.7907-.23683-1.5816-.93423-1.994l-.96415-.5702c-1.281548-.7579-1.281546-2.5885 0-3.3464l.96415-.57017c.6974-.41243 1.06793-1.20328.93423-1.99398zm5.43104-.07792h-2.96957v2.92689l-2.96958 2.9269 2.96958 2.9269v2.9269h2.96957l2.96958 2.9269 2.9696-2.9269h2.9696v-2.9269l2.9695-2.9269-2.9695-2.9269v-2.92689h-2.9696l-2.9696-2.9269z" fill-rule="evenodd"/><path d="m16.4515 12c0 2.4247-1.9943 4.3903-4.4544 4.3903-2.46004 0-4.45433-1.9656-4.45433-4.3903 0-2.42472 1.99429-4.39035 4.45433-4.39035 2.4601 0 4.4544 1.96563 4.4544 4.39035zm-6.93187 0c0 1.3486 1.10917 2.4419 2.47747 2.4419s2.4775-1.0933 2.4775-2.4419-1.1092-2.4419-2.4775-2.4419-2.47747 1.0933-2.47747 2.4419z"/></g></svg>