<svg viewBox="0 0 512 512" xmlns="http://www.w3.org/2000/svg"><path d="m405.878 357.099c-3.641-41.297-29.703-99.953-92.734-102.781-92.922.25-106.391 72.141-97.656 103.984 7.328 26.75 26.781 48.078 54.422 45.656s48.469-26.844 45.656-54.438c-.484-29.266 24.344-28.5 25.094 3.875 1.016 43.094-28.094 80.922-71.031 84.703-42.938 3.75-77.531-28.547-84.719-71.031-4.344-25.781.594-75.172 44.438-113.766 56.344-49.594 117.719 9.875 112.734-70.578-5.031-81.188-25.438-82.906-78.063-114.531-34.797-20.922-40.75-54.109-38.797-67.109.078-.625.078-1.563-1.156-.781-32.594 20.469-32.859 58-13.813 87.25 9.141 14.016 28.031 21.234 29.969 43.422 2.641 30.094-14.672 39.281-28.938 51.703-14.25 12.422-31.219 25.75-56.813 52.078-40.875 42.063-51.625 95.219-48.359 140.266 3.609 41.281 23.625 77.203 53.031 101.875 29.453 24.688 68.313 38.141 109.594 34.516 41.297-3.625 77.203-23.641 101.906-53.063 24.672-29.438 38.844-59.969 35.235-101.25z"/></svg>