<svg viewBox="0 0 32 32" xmlns="http://www.w3.org/2000/svg"><path d="m20.113 16.751 3.871 1.076-2.378-1.513 1.13-2.847-2.002 2.293-.887-.564-2.373 2.836c-1.061-1.507-.125-4.272 1.326-6.913l1.76-1.812 2.587 1.618.834 3.569 4.969 1.367-3.945-2.202-.797-3.493-2.787-1.747 1.497-1.541 2.65-2.122-3.259 1.135-.338-.131 2.519-4.929-3.617 4.505-2.735-1.056v-3.683l-1.214 4.518 4.362 1.67-2.451 2.545c-.965.525-1.685.509-2.319.13l-.32-.692 2.606-2.086-3.075 1.071-1.862-4.024.898-1.956-1.972 1.405-5.69-1.253 5.655 2.358.718 1.552-3.878.825-2.076-2.593.984 2.825-1.631.347-3.717-2.392 1.641 1.872-2.487 1.991 3.242-1.13.865.987 5.018-1.055-.201 2.725 1.296-2.955 1.473-.31 1.458 3.151c.117.621.168 1.193.141 1.692l-2.814-1.098 2.565 2.213c-.379.806-1.198 1.137-2.571.725l-4.696-3.115-1.744 1.156-1.021-2.329.211 2.866-.594.394-4.059-3.075 3.831 4.67 3.376-2.24c.679.467 1.362.928 2.046 1.388l-.756 2.598-3.037 1.261 3.985-.236.845-2.929c.355.236.711.472 1.068.707 3.085 4.727 3.554 11.793.121 11.006.566 2.407-1.512 4.23-3.416 5.049h12.029c-4.305-2.348-5.291-6.941-3.12-11.371l2.26-2.709z"/></svg>