<svg viewBox="0 0 512 512" xmlns="http://www.w3.org/2000/svg"><path d="m373 20c-46.737 0-87.087 26.806-106.564 65.912l-60.436 12.088 48.11 36.082c-.067 1.632-.11 3.27-.11 4.918 0 20.94 5.387 40.592 14.842 57.666l8.803-22.008 6.17-5.388 16.44-4.11c-4.663-10.793-7.255-22.68-7.255-35.16 0-46.01 35.158-84.016 80-88.547l41-7.453zm105 94-7.453 25c-4.53 44.842-42.538 80-88.547 80-12.48 0-24.367-2.59-35.16-7.256l-4.11 16.44-5.388 6.17-22.008 8.804c17.074 9.455 36.726 14.842 57.666 14.842 1.648 0 3.286-.043 4.918-.11l36.082 48.11 12.088-60.436c39.106-19.477 65.912-59.827 65.912-106.564zm-140.37 60.37-44.984 11.245-22.492 56.23 56.23-22.49zm-84.984 30.048-16.503 16.504 16.425 16.426 8.037-20.09c-2.877-4.122-5.54-8.406-7.96-12.84zm-44.054 14.41c-7.608.515-12.517 2.56-15.584 5.63-3.068 3.067-5.114 7.975-5.63 15.583l84.8 84.8c7.608-.515 12.516-2.563 15.584-5.63 3.067-3.07 5.114-7.977 5.63-15.585zm86.154 32.565-20.094 8.04 16.645 16.643 16.568-16.568c-4.534-2.46-8.91-5.177-13.12-8.115zm-105.273 16.2-21.213 21.212 55.154 55.154 21.213-21.214zm-45.254 22.626-21.214 21.212 77.78 77.78 21.215-21.211zm-22.628 45.253-103.591 103.591v54.937h55.373l103.373-103.373z"/></svg>