<svg viewBox="0 0 512 512" xmlns="http://www.w3.org/2000/svg"><path d="m212.368 95.338c11.785 2.345 23.435.142 33.115-5.37v9.38c0 4.197 3.42 7.603 7.617 7.603 4.198 0 7.603-3.406 7.603-7.603v-22.98c3.973-5.452 6.841-11.823 8.23-18.865 5.183-26.065-11.756-51.398-37.821-56.572-26.079-5.176-51.397 11.762-56.594 37.826-5.168 26.08 11.77 51.397 37.85 56.581z"/><path d="m400.272 195.697-90.412-.522-51.397-24.945c.105-1.038.239-2.105.299-3.114l39.403-8.163c.105-.014.194-.044.314-.06.389-.074.792-.164 1.18-.254.389-.089.777-.179 1.166-.298.09-.03.209-.038.298-.075l.852-.299c.298-.104.612-.194.911-.314l4.765-1.672v3.868c0 2.898 2.36 5.243 5.258 5.243 2.912 0 5.258-2.346 5.258-5.243 0-1.635 1.314-2.957 2.942-2.957 1.166 0 2.136.686 2.644 1.666v13.495c0 2.786 2.346 5.049 5.243 5.049 2.898 0 5.258-2.263 5.258-5.049v-25.37l58.104-20.321c9.888-2.987 15.505-13.428 12.532-23.338-2.987-9.91-13.443-15.512-23.331-12.532l-91.234 23.159-71.487 8.365c-.15.015-.284.052-.418.074-17.566.045-32.024 17.909-39.105 41.068l-36.759 97.627c-2.868 7.745-4.482 21.202-4.482 24.451l-5.84 101.511-38.656 92.114c-4.123 11.42 1.822 24.011 13.219 28.118 11.426 4.108 24.018-1.815 28.126-13.233l23.406-39.762v7.678c0 4.197 3.42 7.602 7.618 7.602 4.197 0 7.603-3.406 7.603-7.602v-34.467l17.924-31.539 10.814-50.322 39.104 26.266c.165.68.314 1.374.508 2.054l41.464 122.72c3.525 11.621 15.788 18.186 27.394 14.684 11.62-3.518 18.193-15.781 14.683-27.395l-26.199-127.35c-.269-.888-.582-1.763-.926-2.614-.658-4.459-2.3-8.858-5.049-12.801l-61.943-63.646c-.732-1.039-2.346-2.965-2.346-2.965l25.079-48.686 20.075 6.594v12.442c0 2.891 2.346 5.251 5.258 5.251 2.898 0 5.243-2.36 5.243-5.251 0-1.635 1.329-2.95 2.958-2.95 1.165 0 2.151.686 2.629 1.658v13.502c0 2.786 2.345 5.041 5.258 5.041 2.882 0 5.242-2.255 5.242-5.041v-6.542c.403.105.837.18 1.27.18 2.898 0 5.258-2.27 5.258-5.056v-4.533l94.46-7.767c10.336-.396 18.402-9.089 18.014-19.426-.391-10.328-9.099-18.386-19.45-18.006z"/></svg>